<?xml version="1.0" encoding="UTF-8"?>
<svg width="22px" height="24px" viewBox="0 0 22 24" version="1.1" xmlns="http://www.w3.org/2000/svg" xmlns:xlink="http://www.w3.org/1999/xlink">
    <!-- Generator: Sketch 51.3 (57544) - http://www.bohemiancoding.com/sketch -->
    <title>Shape</title>
    <desc>Created with Sketch.</desc>
    <defs></defs>
    <g id="Symbols" stroke="none" stroke-width="1" fill="none" fill-rule="evenodd">
        <g id="Components-/-Icons-/-Person-grey" fill="#D1DBE2" fill-rule="nonzero">
            <path d="M19.5555556,2.4 L14.4466667,2.4 C13.9333333,1.008 12.5888889,0 11,0 C9.41111111,0 8.06666667,1.008 7.55333333,2.4 L2.44444444,2.4 C1.1,2.4 0,3.48 0,4.8 L0,21.6 C0,22.92 1.1,24 2.44444444,24 L19.5555556,24 C20.9,24 22,22.92 22,21.6 L22,4.8 C22,3.48 20.9,2.4 19.5555556,2.4 Z M11,2.4 C11.6722222,2.4 12.2222222,2.94 12.2222222,3.6 C12.2222222,4.26 11.6722222,4.8 11,4.8 C10.3277778,4.8 9.77777778,4.26 9.77777778,3.6 C9.77777778,2.94 10.3277778,2.4 11,2.4 Z M11,7.2 C13.0288889,7.2 14.6666667,8.808 14.6666667,10.8 C14.6666667,12.792 13.0288889,14.4 11,14.4 C8.97111111,14.4 7.33333333,12.792 7.33333333,10.8 C7.33333333,8.808 8.97111111,7.2 11,7.2 Z M18.3333333,21.6 L3.66666667,21.6 L3.66666667,19.92 C3.66666667,17.52 8.55555556,16.2 11,16.2 C13.4444444,16.2 18.3333333,17.52 18.3333333,19.92 L18.3333333,21.6 Z" id="Shape"></path>
        </g>
    </g>
</svg>